<?xml version="1.0" encoding="utf-8"?>
<!-- Generator: Adobe Illustrator 17.0.0, SVG Export Plug-In . SVG Version: 6.00 Build 0)  -->
<!DOCTYPE svg PUBLIC "-//W3C//DTD SVG 1.1//EN" "http://www.w3.org/Graphics/SVG/1.1/DTD/svg11.dtd">
<svg version="1.1" id="Layer_1" xmlns="http://www.w3.org/2000/svg" xmlns:xlink="http://www.w3.org/1999/xlink" x="0px" y="0px"
	 width="34.25px" height="13.278px" viewBox="0.667 0.333 34.25 13.278" enable-background="new 0.667 0.333 34.25 13.278"
	 xml:space="preserve">
<g>
	<path fill="#398FFC" d="M24.588,4.763c-0.097-0.201-0.255-0.384-0.47-0.545c-0.044-0.041-0.086-0.076-0.13-0.105c-0.044-0.031-0.086-0.065-0.13-0.105c-0.174-0.101-0.319-0.162-0.438-0.182c-0.118-0.019-0.201-0.031-0.243-0.031c-0.065,0-0.141,0.021-0.227,0.062c-0.021,0.021-0.032,0.05-0.032,0.091c0,0.041,0.021,0.062,0.065,0.062c0.044,0.041,0.092,0.096,0.146,0.167c0.053,0.071,0.081,0.157,0.081,0.258c0.021,0.95-0.055,1.899-0.227,2.849
		c-0.151,0.829-0.422,1.708-0.811,2.637c-0.391,0.929-0.963,1.808-1.721,2.637c-0.044-0.889-0.023-1.758,0.065-2.606
		c0.086-0.727,0.232-1.5,0.438-2.319c0.206-0.819,0.547-1.55,1.022-2.197c0.021,0,0.042-0.01,0.065-0.031
		c0.044-0.041,0.097-0.06,0.162-0.06c0.044,0.021,0.086,0.021,0.13,0c0.065-0.041,0.076-0.101,0.032-0.182
		C22.3,5.062,22.196,4.94,22.057,4.799c-0.141-0.141-0.331-0.263-0.568-0.363c-0.195-0.101-0.417-0.182-0.665-0.243
		c-0.248-0.062-0.503-0.05-0.762,0.031c-0.109,0.041-0.216,0.112-0.324,0.212c-0.044,0.041-0.076,0.081-0.097,0.122
		c-0.109,0.182-0.259,0.496-0.454,0.939c-0.195,0.444-0.373,0.984-0.535,1.622c-0.162,0.637-0.276,1.364-0.341,2.183
		c-0.018,0.214-0.026,0.436-0.028,0.662c-0.044,0.149-0.078,0.302-0.135,0.446c-0.174,0.423-0.422,0.859-0.746,1.304
		c-0.324,0.444-0.769,0.778-1.33,1.001c-0.044-0.363-0.032-0.808,0.032-1.333c0.044-0.465,0.13-1.035,0.259-1.712
		c0.083-0.436,0.208-0.936,0.363-1.487C17.247,6.7,17.104,6.88,16.42,6.1c-0.392-0.446-1.031-0.809-1.51-1.039
		c-0.161-0.092-0.324-0.172-0.491-0.227c-0.037-0.013-0.07-0.019-0.105-0.032c-0.023-0.008-0.039-0.015-0.039-0.015l-0.005,0.002
		c-0.242-0.075-0.465-0.133-0.663-0.167c-0.281-0.062-0.563-0.081-0.843-0.062C12.33,4.58,11.945,4.746,11.61,5.059
		c-0.336,0.315-0.632,0.712-0.892,1.197c-0.259,0.485-0.482,1.02-0.665,1.605C9.868,8.448,9.734,9.012,9.648,9.559
		c-0.044,0.277-0.071,0.534-0.091,0.782c-0.172,0.427-0.409,0.853-0.72,1.279c-0.324,0.444-0.769,0.778-1.33,1.001V12.59
		c-0.023-0.081-0.06-0.383-0.114-0.908c-0.055-0.525-0.037-1.151,0.049-1.88c0.021-0.201-0.021-0.363-0.13-0.485
		c-0.065-0.062-0.13-0.112-0.195-0.151C6.858,9.025,6.523,8.863,6.112,8.681C5.7,8.5,5.311,8.378,4.945,8.318
		C5.118,8.034,5.29,7.764,5.464,7.499c0.174-0.263,0.368-0.504,0.584-0.728c-0.044,0.162-0.086,0.294-0.13,0.394
		c-0.044,0.102-0.086,0.232-0.13,0.394c-0.023,0.06-0.032,0.122-0.032,0.182c0,0.122,0.053,0.203,0.162,0.243
		c0.174,0.081,0.394,0.177,0.665,0.287C6.853,8.383,7.226,8.479,7.703,8.56c0.044,0.021,0.086,0.021,0.13,0
		c0.086-0.041,0.141-0.11,0.162-0.212C8.104,7.944,8.222,7.533,8.352,7.12c0.13-0.414,0.303-0.884,0.519-1.409V5.68V5.649
		c0.044-0.141,0.044-0.243,0-0.303C8.827,5.284,8.795,5.245,8.774,5.224H8.741C8.524,5.042,8.281,4.89,8.011,4.77
		c-0.271-0.122-0.514-0.222-0.73-0.303c-0.021,0-0.037-0.005-0.049-0.015S7.205,4.437,7.184,4.437H7.119
		c-0.13,0-0.238,0.041-0.324,0.122C6.751,4.6,6.714,4.635,6.682,4.664C6.649,4.695,6.622,4.72,6.6,4.741
		c0,0.021-0.011,0.031-0.032,0.031c-0.303,0.323-0.72,0.819-1.25,1.485c-0.53,0.667-1.044,1.485-1.542,2.455
		c0.151-0.626,0.329-1.304,0.535-2.03c0.206-0.727,0.401-1.414,0.584-2.061c0.183-0.647,0.352-1.223,0.503-1.727
		s0.259-0.858,0.324-1.061c0.021-0.122,0.011-0.232-0.032-0.334c-0.023-0.041-0.055-0.07-0.097-0.091
		C5.311,1.186,4.997,1.004,4.65,0.863C4.303,0.722,4.033,0.62,3.839,0.56C3.816,0.541,3.795,0.529,3.774,0.529
		c-0.044,0-0.071-0.005-0.081-0.015C3.682,0.505,3.654,0.5,3.612,0.5c-0.13,0-0.206,0.041-0.227,0.122
		c-0.044,0.101-0.044,0.177,0,0.227c0.044,0.05,0.044,0.177,0,0.379C3.276,1.591,3.137,2.067,2.963,2.652
		C2.79,3.239,2.611,3.889,2.428,4.606C2.243,5.323,2.06,6.082,1.877,6.88C1.692,7.678,1.53,8.451,1.39,9.199
		c-0.141,0.748-0.243,1.445-0.308,2.09c-0.065,0.647-0.076,1.192-0.032,1.636v0.062c0,0.06,0.032,0.101,0.097,0.122
		c0.345,0.162,0.665,0.268,0.958,0.318c0.292,0.05,0.514,0.096,0.665,0.136c0.109,0,0.162-0.05,0.162-0.151
		c0-0.041,0.037-0.198,0.114-0.47c0.075-0.272,0.183-0.616,0.324-1.031c0.141-0.414,0.308-0.874,0.503-1.378
		c0.195-0.504,0.422-1.02,0.681-1.545C4.64,9.007,4.77,9.048,4.943,9.108C5.117,9.17,5.3,9.28,5.495,9.442l-0.162,0.606
		c-0.065,0.222-0.125,0.485-0.178,0.788c-0.055,0.303-0.086,0.611-0.097,0.924c-0.011,0.313,0,0.606,0.032,0.879
		c0.032,0.272,0.114,0.499,0.243,0.681c0.216,0.081,0.454,0.151,0.714,0.212c0.216,0.041,0.47,0.065,0.762,0.076
		c0.292,0.01,0.611-0.036,0.957-0.136c0.044,0,0.151-0.041,0.324-0.122c0.13-0.041,0.259-0.11,0.389-0.212
		c0.151-0.101,0.341-0.248,0.568-0.439c0.177-0.149,0.347-0.336,0.511-0.542c0.008,0.065,0.015,0.131,0.024,0.193
		c0.174,0.404,0.433,0.678,0.778,0.819s0.692,0.232,1.038,0.272c0.389,0.041,0.822,0.021,1.299-0.062
		c0.044-0.041,0.107-0.146,0.195-0.318c0.086-0.172,0.183-0.384,0.292-0.636c0.107-0.253,0.222-0.54,0.341-0.864
		c0.118-0.323,0.243-0.647,0.373-0.97c-0.023,0.222-0.032,0.444-0.032,0.667c0,0.222,0.021,0.425,0.065,0.606c0.065,0.384,0.341,0.712,0.827,0.984s1.098,0.49,1.834,0.652c0.389-0.182,0.767-0.444,1.137-0.788
		c0.235-0.221,0.469-0.506,0.697-0.855c0.006,0.044,0.01,0.084,0.016,0.128c0.13,0.243,0.292,0.465,0.486,0.667c0.174,0.182,0.389,0.354,0.649,0.516c0.259,0.162,0.595,0.294,1.005,0.394c0.021-0.021,0.055-0.041,0.097-0.062
		c0.086-0.041,0.183-0.11,0.292-0.212c0.195-0.141,0.465-0.384,0.811-0.728c0.345-0.344,0.709-0.819,1.088-1.424c0.378-0.606,0.741-1.359,1.088-2.257s0.628-1.985,0.843-3.258c0.021-0.081,0.028-0.151,0.016-0.212
		c-0.011-0.06-0.016-0.11-0.016-0.151C24.755,5.127,24.684,4.964,24.588,4.763z M13.731,9.309c-0.324,0.688-0.616,1.263-0.876,1.727c-0.303,0.525-0.606,0.981-0.908,1.364c-0.086-0.504-0.109-1.061-0.065-1.667c0.044-0.606,0.146-1.207,0.308-1.803
		c0.162-0.595,0.373-1.156,0.632-1.682c0.259-0.525,0.551-0.939,0.876-1.242c0.125-0.117,0.255-0.208,0.389-0.277c0.762-0.123,0.647,0.885,0.647,0.885c-0.021,0.075-0.041,0.154-0.062,0.24C14.368,7.804,14.055,8.623,13.731,9.309z"/>
	<g id="Vector_2">
		<path fill="#398FFC" d="M34.535,9.369c-0.044-0.101-0.109-0.198-0.195-0.287c-0.086-0.091-0.216-0.186-0.389-0.287
			c-0.044,0.566-0.162,1.101-0.357,1.605c-0.174,0.425-0.422,0.859-0.746,1.304c-0.324,0.444-0.769,0.778-1.33,1.001
			c-0.044-0.363-0.032-0.808,0.032-1.333c0.044-0.465,0.13-1.035,0.259-1.712c0.068-0.354,0.161-0.746,0.276-1.174
			c0.045-0.075,0.089-0.162,0.131-0.279c0.534-1.518,0.392-1.328-0.297-2.113C31.23,5.308,29.776,4.78,29.776,4.78l-0.031,0.011
			c-0.253-0.079-0.486-0.141-0.692-0.177c-0.281-0.062-0.563-0.081-0.843-0.062c-0.433,0.021-0.817,0.186-1.153,0.499
			c-0.336,0.315-0.632,0.712-0.892,1.197c-0.259,0.485-0.482,1.02-0.665,1.605c-0.185,0.587-0.319,1.151-0.405,1.698
			c-0.065,0.404-0.102,0.778-0.114,1.121c-0.011,0.344-0.016,0.637-0.016,0.879c0,0.284,0.023,0.545,0.065,0.788
			c0.174,0.404,0.433,0.676,0.778,0.819c0.345,0.141,0.692,0.232,1.038,0.272c0.389,0.041,0.822,0.021,1.299-0.062
			c0.044-0.041,0.107-0.146,0.195-0.318c0.086-0.172,0.183-0.384,0.292-0.636c0.109-0.253,0.222-0.54,0.341-0.864
			c0.118-0.323,0.243-0.647,0.373-0.97c-0.023,0.222-0.032,0.444-0.032,0.667c0,0.222,0.021,0.425,0.065,0.606
			c0.065,0.384,0.341,0.712,0.829,0.984c0.486,0.272,1.098,0.49,1.834,0.652c0.389-0.182,0.767-0.444,1.135-0.788
			c0.303-0.282,0.6-0.671,0.892-1.168c0.292-0.495,0.491-1.116,0.6-1.865C34.644,9.572,34.6,9.471,34.535,9.369z M30.121,6.854
			c-0.303,0.95-0.616,1.769-0.941,2.455c-0.324,0.688-0.616,1.263-0.876,1.727c-0.303,0.525-0.606,0.981-0.908,1.364
			c-0.086-0.504-0.109-1.061-0.065-1.667c0.044-0.606,0.146-1.207,0.308-1.803c0.162-0.595,0.373-1.156,0.632-1.682
			c0.259-0.525,0.551-0.939,0.876-1.242c0.112-0.105,0.23-0.19,0.35-0.256c0.031-0.006,0.057-0.015,0.091-0.021
			c0.55-0.091,0.644,0.402,0.654,0.689C30.201,6.542,30.16,6.685,30.121,6.854z"/>
	</g>
</g>
</svg>
